<svg width="56" height="56" viewBox="0 0 56 56" fill="none" xmlns="http://www.w3.org/2000/svg">
<rect x="1" y="1" width="54" height="54" rx="2" stroke="black" stroke-width="2"/>
<path fill-rule="evenodd" clip-rule="evenodd" d="M31.3359 22.503H37.6915V20.6821H31.3359V22.503ZM32.8415 26.4761C32.4365 26.8882 32.1811 27.4464 32.0767 28.1508H37.0198C36.9676 27.3991 36.7108 26.8311 36.2564 26.4399C35.7964 26.0515 35.2305 25.858 34.5532 25.858C33.8194 25.858 33.2465 26.064 32.8415 26.4761ZM37.1313 24.0316C37.8975 24.3684 38.5283 24.903 39.025 25.6325C39.4779 26.2756 39.7686 27.0218 39.9013 27.8696C39.9789 28.3652 40.0099 29.0835 39.9972 30.0176H32.0062C32.0541 31.1021 32.4323 31.8636 33.1548 32.2993C33.5922 32.5708 34.1186 32.7072 34.7366 32.7072C35.3871 32.7072 35.9191 32.5415 36.327 32.2116C36.5513 32.032 36.7489 31.7842 36.9182 31.4668H39.8462C39.7686 32.1072 39.413 32.7601 38.7837 33.4227C37.8016 34.4738 36.4257 35 34.6576 35C33.1971 35 31.9088 34.5573 30.7954 33.6691C29.6764 32.7824 29.1204 31.3374 29.1204 29.3383C29.1204 27.4631 29.6242 26.0251 30.6303 25.0241C31.6393 24.026 32.9445 23.5234 34.5518 23.5234C35.5071 23.5234 36.3665 23.6933 37.1313 24.0316ZM18.9563 28.1898V32.0919H22.5574C23.2009 32.0919 23.7032 32.0056 24.0602 31.8343C24.7108 31.5141 25.0353 30.9072 25.0353 30.0079C25.0353 29.245 24.722 28.723 24.0913 28.4376C23.7385 28.2789 23.2432 28.1954 22.6082 28.1898H18.9563ZM18.9563 22.5406V25.7689H22.563C23.2051 25.7689 23.7286 25.6478 24.1322 25.4056C24.533 25.1633 24.7347 24.7346 24.7347 24.122C24.7347 23.4385 24.4694 22.9889 23.9389 22.7689C23.4789 22.6172 22.8947 22.5406 22.1849 22.5406H18.9563ZM27.0108 21.5592C27.4638 22.1814 27.691 22.9248 27.691 23.7921C27.691 24.6845 27.4638 25.4042 27.0052 25.9471C26.7484 26.2506 26.3716 26.529 25.8735 26.7796C26.6299 27.0524 27.1999 27.4826 27.588 28.0715C27.9718 28.6589 28.1651 29.3745 28.1651 30.2153C28.1651 31.0826 27.945 31.8608 27.5033 32.5485C27.2239 33.0037 26.874 33.3879 26.4535 33.6998C25.9807 34.0575 25.4233 34.3012 24.7785 34.4348C24.1336 34.567 23.4365 34.6311 22.683 34.6311H16V20H23.167C24.976 20.0265 26.2559 20.5457 27.0108 21.5592Z" fill="black"/>
</svg>
