<svg width="56" height="56" viewBox="0 0 56 56" fill="none" xmlns="http://www.w3.org/2000/svg">
<rect x="1" y="1" width="54" height="54" rx="2" stroke="black" stroke-width="2"/>
<path d="M27.9999 16C25.1505 16.0001 22.3941 17.0398 20.224 18.933C18.0538 20.8262 16.6114 23.4493 16.155 26.3331C15.6986 29.2169 16.2578 32.1731 17.7327 34.6727C19.2076 37.1724 21.5019 39.0524 24.205 39.9764C24.805 40.0841 25.03 39.715 25.03 39.392C25.03 39.0998 25.015 38.1309 25.015 37.1005C22 37.6695 21.22 36.347 20.98 35.6549C20.7137 34.9818 20.2915 34.3853 19.75 33.917C19.33 33.6863 18.73 33.1173 19.735 33.1019C20.1187 33.1446 20.4868 33.2815 20.808 33.501C21.1291 33.7205 21.394 34.0162 21.58 34.363C21.7441 34.6653 21.9648 34.9314 22.2294 35.1461C22.494 35.3608 22.7974 35.5198 23.122 35.6141C23.4467 35.7084 23.7863 35.7361 24.1214 35.6956C24.4565 35.6551 24.7806 35.5471 25.0749 35.378C25.1269 34.7525 25.3988 34.1677 25.84 33.7325C23.17 33.4249 20.38 32.3637 20.38 27.6576C20.3631 26.4348 20.8032 25.2518 21.61 24.351C21.2431 23.2883 21.2861 22.122 21.73 21.0906C21.73 21.0906 22.7349 20.7676 25.03 22.3517C26.9935 21.798 29.0664 21.798 31.0299 22.3517C33.3249 20.7523 34.3299 21.0906 34.3299 21.0906C34.7739 22.122 34.8168 23.2883 34.4499 24.351C35.2591 25.2502 35.6996 26.4343 35.6799 27.6576C35.6799 32.379 32.8749 33.4249 30.2049 33.7325C30.4913 34.0301 30.7119 34.3874 30.8516 34.7801C30.9914 35.1729 31.0471 35.5918 31.0149 36.0086C31.0149 37.6542 30.9999 38.9768 30.9999 39.3921C30.9999 39.7151 31.2249 40.0995 31.8249 39.9765C34.5233 39.045 36.811 37.1605 38.2796 34.6596C39.7482 32.1586 40.3021 29.2039 39.8425 26.3229C39.3829 23.442 37.9397 20.8222 35.7705 18.9313C33.6012 17.0404 30.8472 16.0015 27.9999 16Z" fill="black"/>
</svg>
