<svg width="140" height="30" viewBox="0 0 140 30" fill="none" xmlns="http://www.w3.org/2000/svg">
<path d="M20.8536 29.088C20.1496 29.088 19.467 29.0027 18.8056 28.832C18.1443 28.6827 17.547 28.32 17.0136 27.744C16.4803 27.168 16.043 26.272 15.7016 25.056C15.3603 23.8187 15.1576 22.144 15.0936 20.032C14.1976 21.5893 13.2056 22.9867 12.1176 24.224C11.051 25.4613 9.97362 26.4427 8.88562 27.168C7.81896 27.872 6.81629 28.224 5.87762 28.224C4.93896 28.224 4.08562 27.9893 3.31762 27.52C2.57096 27.0507 1.97362 26.2613 1.52562 25.152C1.09896 24.0427 0.885624 22.5387 0.885624 20.64C0.885624 19.168 1.01362 17.6747 1.26962 16.16C1.52562 14.624 1.85629 13.1627 2.26162 11.776C2.66696 10.368 3.10429 9.10933 3.57362 8C4.04296 6.89067 4.50162 6.016 4.94962 5.376C5.41896 4.736 5.82429 4.416 6.16562 4.416C6.97629 4.416 7.57362 4.62933 7.95762 5.056C8.34162 5.46133 8.53362 5.984 8.53362 6.624C8.53362 6.90133 8.41629 7.44533 8.18162 8.256C7.94696 9.04533 7.65896 10.0053 7.31762 11.136C6.97629 12.2453 6.62429 13.44 6.26162 14.72C5.92029 15.9787 5.63229 17.2267 5.39762 18.464C5.16296 19.7013 5.04562 20.832 5.04562 21.856C5.04562 22.2827 5.07762 22.6453 5.14162 22.944C5.22696 23.2213 5.37629 23.36 5.58962 23.36C6.72029 23.36 7.76562 22.9333 8.72562 22.08C9.70696 21.2053 10.603 20.0533 11.4136 18.624C12.2456 17.1733 12.9816 15.584 13.6216 13.856C14.283 12.1067 14.8696 10.3573 15.3816 8.608C15.339 8.224 15.307 7.85067 15.2856 7.488C15.2856 7.12533 15.2856 6.73067 15.2856 6.304C15.2856 5.83467 15.467 5.33333 15.8296 4.8C16.1923 4.26667 16.6296 3.81867 17.1416 3.456C17.675 3.072 18.1763 2.88 18.6456 2.88C19.179 2.88 19.6163 3.05067 19.9576 3.392C20.3203 3.73333 20.5016 4.33067 20.5016 5.184C20.5016 5.888 20.4696 6.47467 20.4056 6.944C20.363 7.392 20.2883 7.81867 20.1816 8.224C20.0963 8.62933 20.0003 9.088 19.8936 9.6C19.8083 10.0907 19.7123 10.7307 19.6056 11.52C19.5203 12.3093 19.4456 13.3227 19.3816 14.56C19.339 15.7973 19.3176 17.3547 19.3176 19.232C19.3176 19.36 19.3176 19.488 19.3176 19.616C19.3176 19.7227 19.3176 19.84 19.3176 19.968C19.2963 20.5653 19.307 21.1733 19.3496 21.792C19.3923 22.4107 19.5523 22.9227 19.8296 23.328C20.107 23.7333 20.5976 23.936 21.3016 23.936C22.0696 23.936 22.795 23.4453 23.4776 22.464C24.1603 21.4827 24.7683 20.1173 25.3016 18.368C25.835 16.5973 26.2936 14.528 26.6776 12.16C27.0616 9.77067 27.3496 7.18933 27.5416 4.416C27.6056 3.47733 27.7656 2.77333 28.0216 2.304C28.299 1.83467 28.6083 1.52533 28.9496 1.376C29.291 1.20533 29.5896 1.12 29.8456 1.12C30.1016 1.12 30.411 1.16267 30.7736 1.248C31.1363 1.33333 31.4563 1.57867 31.7336 1.984C32.011 2.38933 32.1496 3.072 32.1496 4.032C32.1496 7.70133 31.883 10.9227 31.3496 13.696C30.8163 16.4693 30.123 18.8373 29.2696 20.8C28.4163 22.7627 27.4776 24.352 26.4536 25.568C25.451 26.784 24.459 27.6693 23.4776 28.224C22.4963 28.8 21.6216 29.088 20.8536 29.088ZM39.6839 29.088C38.3612 29.088 37.2945 28.6293 36.4839 27.712C35.6732 26.7733 35.2679 25.2693 35.2679 23.2C35.2679 21.8773 35.4172 20.5547 35.7159 19.232C36.0359 17.888 36.4732 16.6187 37.0279 15.424C37.6039 14.208 38.2652 13.1307 39.0119 12.192C39.7799 11.2533 40.6225 10.5173 41.5399 9.984C42.4572 9.42933 43.4065 9.152 44.3879 9.152C46.0519 9.152 47.3532 9.6 48.2919 10.496C49.2305 11.392 49.6999 12.5333 49.6999 13.92C49.6999 14.9867 49.4012 15.9573 48.8039 16.832C48.2279 17.6853 47.4385 18.4533 46.4359 19.136C45.4332 19.8187 44.3132 20.4373 43.0759 20.992C41.8385 21.5467 40.5692 22.048 39.2679 22.496C39.1612 23.264 39.1079 23.9467 39.1079 24.544C39.1079 24.9067 39.3105 25.088 39.7159 25.088C40.6759 25.088 41.6999 24.9387 42.7879 24.64C43.8972 24.32 45.0172 23.9147 46.1479 23.424C47.2785 22.912 48.3665 22.3893 49.4119 21.856C50.4572 21.3013 51.4065 20.7787 52.2599 20.288C53.1345 19.776 53.8492 19.3707 54.4039 19.072C54.9799 18.752 55.3532 18.592 55.5239 18.592C55.9932 18.592 56.3345 18.7307 56.5479 19.008C56.7612 19.2853 56.8679 19.584 56.8679 19.904C56.8679 20.0533 56.5799 20.384 56.0039 20.896C55.4492 21.408 54.6812 22.016 53.6999 22.72C52.7399 23.4027 51.6519 24.1173 50.4359 24.864C49.2412 25.5893 47.9932 26.2827 46.6919 26.944C45.4119 27.584 44.1639 28.096 42.9479 28.48C41.7532 28.8853 40.6652 29.088 39.6839 29.088ZM39.8119 19.648C40.6865 19.136 41.5505 18.6027 42.4039 18.048C43.2785 17.472 44.0039 16.832 44.5799 16.128C45.1559 15.4027 45.4439 14.56 45.4439 13.6C45.4439 13.3227 45.3692 13.1413 45.2199 13.056C45.0705 12.9493 44.8572 12.896 44.5799 12.896C43.8332 12.896 43.1505 13.2267 42.5319 13.888C41.9345 14.5493 41.4012 15.4027 40.9319 16.448C40.4839 17.472 40.1105 18.5387 39.8119 19.648ZM57.9954 28.992C56.7154 28.992 55.83 28.736 55.3394 28.224C54.87 27.7333 54.6354 27.0507 54.6354 26.176C54.6354 22.464 55.3287 18.592 56.7154 14.56C58.1234 10.5067 60.0967 6.44267 62.6354 2.368C63.062 1.664 63.414 1.248 63.6914 1.12C63.9687 0.991999 64.278 0.927999 64.6194 0.927999C65.11 0.927999 65.5367 1.09867 65.8994 1.44C66.2834 1.78133 66.4754 2.22933 66.4754 2.784C66.4754 2.95467 66.294 3.424 65.9314 4.192C65.5687 4.96 65.0887 5.94133 64.4914 7.136C63.9154 8.33067 63.286 9.68533 62.6034 11.2C61.9207 12.6933 61.2487 14.272 60.5874 15.936C59.9474 17.6 59.3927 19.2747 58.9234 20.96C59.6487 20.0427 60.47 19.104 61.3874 18.144C62.326 17.1627 63.2967 16.2667 64.2994 15.456C65.302 14.624 66.2727 13.9627 67.2114 13.472C68.15 12.96 68.9927 12.704 69.7394 12.704C70.4434 12.704 71.094 12.8747 71.6914 13.216C72.31 13.5573 72.8114 14.0907 73.1954 14.816C73.5794 15.5413 73.7714 16.48 73.7714 17.632C73.7714 18.8907 73.4087 20.1813 72.6834 21.504C71.9794 22.8267 70.9447 24.0533 69.5794 25.184C68.2354 26.3147 66.582 27.232 64.6194 27.936C62.678 28.64 60.47 28.992 57.9954 28.992ZM59.3394 25.344C60.982 25.216 62.4647 24.864 63.7874 24.288C65.1314 23.712 66.2834 22.9973 67.2434 22.144C68.2034 21.2907 68.9394 20.3947 69.4514 19.456C69.9634 18.496 70.2194 17.5893 70.2194 16.736C70.2194 16.544 70.166 16.448 70.0594 16.448C69.6114 16.448 69.046 16.6507 68.3634 17.056C67.6807 17.44 66.934 17.9627 66.1234 18.624C65.3127 19.2853 64.4914 20.0107 63.6594 20.8C62.8274 21.5893 62.038 22.3787 61.2914 23.168C60.5447 23.9573 59.894 24.6827 59.3394 25.344Z" fill="#FF0000"/>
<path d="M79.1454 29.952C78.5267 29.952 78.036 29.7813 77.6734 29.44C77.332 29.12 77.1614 28.6613 77.1614 28.064C77.1614 27.5093 77.3107 27.04 77.6094 26.656C77.908 26.2507 78.484 25.8667 79.3374 25.504C79.4014 25.4827 79.4654 25.4613 79.5294 25.44C78.996 25.3333 78.6227 25.0347 78.4094 24.544C78.2174 24.0533 78.1214 23.488 78.1214 22.848C78.1214 22.4853 78.1854 21.8987 78.3134 21.088C78.4414 20.2773 78.6014 19.3493 78.7934 18.304C78.9854 17.2587 79.188 16.224 79.4014 15.2C79.6147 14.1547 79.796 13.2373 79.9454 12.448C80.3507 10.6347 80.8734 9.03467 81.5134 7.648C82.1534 6.26133 83.0174 5.184 84.1054 4.416C85.1934 3.62667 86.5907 3.232 88.2974 3.232C89.5987 3.232 90.8787 3.50933 92.1374 4.064C93.4174 4.59733 94.58 5.35467 95.6254 6.336C96.6707 7.31733 97.5027 8.46933 98.1214 9.792C98.7614 11.1147 99.0814 12.5653 99.0814 14.144C99.0814 15.936 98.3774 17.7387 96.9694 19.552C95.5614 21.3653 93.588 23.104 91.0494 24.768C88.532 26.4107 85.588 27.8933 82.2174 29.216C81.6627 29.4293 81.1614 29.6 80.7134 29.728C80.2867 29.8773 79.764 29.952 79.1454 29.952ZM81.8974 24.512C84.9907 23.2747 87.4867 22.0907 89.3854 20.96C91.284 19.8293 92.66 18.6347 93.5134 17.376C94.388 16.1173 94.8254 14.688 94.8254 13.088C94.8254 12.192 94.5267 11.3387 93.9294 10.528C93.332 9.71733 92.564 9.06667 91.6254 8.576C90.6867 8.064 89.6947 7.808 88.6494 7.808C87.5187 7.808 86.612 8.26667 85.9294 9.184C85.2467 10.08 84.7027 11.616 84.2974 13.792C84.1054 14.6667 83.9027 15.616 83.6894 16.64C83.4974 17.6427 83.3054 18.6133 83.1134 19.552C82.9427 20.4693 82.7934 21.2373 82.6654 21.856C82.5587 22.4747 82.4947 22.8373 82.4734 22.944C82.3667 23.584 82.1747 24.1067 81.8974 24.512ZM107.108 29.088C105.785 29.088 104.718 28.6293 103.908 27.712C103.097 26.7733 102.692 25.2693 102.692 23.2C102.692 21.8773 102.841 20.5547 103.14 19.232C103.46 17.888 103.897 16.6187 104.452 15.424C105.028 14.208 105.689 13.1307 106.436 12.192C107.204 11.2533 108.046 10.5173 108.964 9.984C109.881 9.42933 110.83 9.152 111.812 9.152C113.476 9.152 114.777 9.6 115.716 10.496C116.654 11.392 117.124 12.5333 117.124 13.92C117.124 14.9867 116.825 15.9573 116.228 16.832C115.652 17.6853 114.862 18.4533 113.86 19.136C112.857 19.8187 111.737 20.4373 110.5 20.992C109.262 21.5467 107.993 22.048 106.692 22.496C106.585 23.264 106.532 23.9467 106.532 24.544C106.532 24.9067 106.734 25.088 107.14 25.088C108.1 25.088 109.124 24.9387 110.212 24.64C111.321 24.32 112.441 23.9147 113.572 23.424C114.702 22.912 115.79 22.3893 116.836 21.856C117.881 21.3013 118.83 20.7787 119.684 20.288C120.558 19.776 121.273 19.3707 121.828 19.072C122.404 18.752 122.777 18.592 122.948 18.592C123.417 18.592 123.758 18.7307 123.972 19.008C124.185 19.2853 124.292 19.584 124.292 19.904C124.292 20.0533 124.004 20.384 123.428 20.896C122.873 21.408 122.105 22.016 121.124 22.72C120.164 23.4027 119.076 24.1173 117.86 24.864C116.665 25.5893 115.417 26.2827 114.116 26.944C112.836 27.584 111.588 28.096 110.372 28.48C109.177 28.8853 108.089 29.088 107.108 29.088ZM107.236 19.648C108.11 19.136 108.974 18.6027 109.828 18.048C110.702 17.472 111.428 16.832 112.004 16.128C112.58 15.4027 112.868 14.56 112.868 13.6C112.868 13.3227 112.793 13.1413 112.644 13.056C112.494 12.9493 112.281 12.896 112.004 12.896C111.257 12.896 110.574 13.2267 109.956 13.888C109.358 14.5493 108.825 15.4027 108.356 16.448C107.908 17.472 107.534 18.5387 107.236 19.648ZM125.803 27.968C125.248 27.968 124.758 27.7013 124.331 27.168C123.926 26.6347 123.616 25.8133 123.403 24.704C123.232 23.7653 123.083 22.6987 122.955 21.504C122.827 20.3093 122.71 19.136 122.603 17.984C122.518 16.8107 122.454 15.7867 122.411 14.912C122.368 14.0373 122.347 13.44 122.347 13.12C122.347 11.968 122.55 11.0187 122.955 10.272C123.36 9.504 124.139 9.12 125.291 9.12C125.782 9.12 126.155 9.33333 126.411 9.76C126.667 10.1653 126.795 10.7307 126.795 11.456C126.795 11.904 126.795 12.4693 126.795 13.152C126.816 13.8133 126.838 14.56 126.859 15.392C126.88 16.3093 126.902 17.3013 126.923 18.368C126.966 19.4133 126.987 20.4587 126.987 21.504C127.734 20.3307 128.534 19.0827 129.387 17.76C130.24 16.416 131.072 15.1147 131.883 13.856C132.715 12.5973 133.462 11.488 134.123 10.528C134.784 9.54667 135.286 8.85333 135.627 8.448C135.926 8.08533 136.288 7.776 136.715 7.52C137.142 7.24266 137.59 7.104 138.059 7.104C138.571 7.104 138.998 7.30667 139.339 7.712C139.68 8.11733 139.851 8.58667 139.851 9.12C139.851 9.52533 139.766 9.90933 139.595 10.272C139.446 10.6347 139.254 10.976 139.019 11.296C138.379 12.192 137.622 13.2373 136.747 14.432C135.894 15.6267 134.998 16.8853 134.059 18.208C133.12 19.5093 132.203 20.768 131.307 21.984C130.432 23.2 129.654 24.2773 128.971 25.216C128.416 26.0053 127.968 26.6027 127.627 27.008C127.286 27.392 126.976 27.648 126.699 27.776C126.443 27.904 126.144 27.968 125.803 27.968Z" fill="black"/>
</svg>
