<svg width="208" height="33" viewBox="0 0 208 33" fill="none" xmlns="http://www.w3.org/2000/svg">
<path d="M24.4524 30.448C23.8337 30.448 23.3644 30.256 23.0444 29.872C22.7457 29.488 22.5964 28.9653 22.5964 28.304C22.5964 27.7707 22.6177 27.312 22.6604 26.928C22.703 26.544 22.7884 26.1387 22.9164 25.712C23.0444 25.264 23.2044 24.72 23.3964 24.08C23.6097 23.4187 23.8764 22.576 24.1964 21.552C24.3884 20.9547 24.623 20.176 24.9004 19.216C25.199 18.2347 25.4977 17.168 25.7964 16.016C26.095 14.8427 26.3404 13.6693 26.5324 12.496C26.7457 11.3013 26.8524 10.2027 26.8524 9.2C26.8524 8.51733 26.703 7.888 26.4044 7.312C24.4204 9.27467 22.543 11.8347 20.7724 14.992C19.023 18.1493 17.4657 21.8187 16.1004 26C15.695 27.0453 15.2257 27.7493 14.6924 28.112C14.159 28.4533 13.647 28.624 13.1564 28.624C13.007 28.624 12.783 28.5387 12.4844 28.368C12.1857 28.176 11.9084 27.8347 11.6524 27.344C11.3964 26.8533 11.2684 26.16 11.2684 25.264C11.2684 25.0507 11.3217 24.784 11.4284 24.464C11.535 24.1227 11.695 23.76 11.9084 23.376C12.1004 22.2667 12.239 21.0827 12.3244 19.824C12.431 18.544 12.495 17.2747 12.5164 16.016C12.559 14.736 12.5804 13.5413 12.5804 12.432C12.5804 11.5787 12.5164 10.832 12.3884 10.192C11.343 11.5147 10.351 13.1147 9.41237 14.992C8.47371 16.8693 7.62037 18.864 6.85237 20.976C6.10571 23.088 5.48704 25.1573 4.99637 27.184C4.86837 27.6747 4.71904 28.1333 4.54837 28.56C4.37771 28.9653 4.12171 29.296 3.78037 29.552C3.46037 29.7867 2.99104 29.904 2.37237 29.904C1.68971 29.904 1.17771 29.6267 0.836373 29.072C0.495039 28.5173 0.324373 27.7813 0.324373 26.864C0.324373 26.16 0.473706 25.2533 0.772373 24.144C1.07104 23.0133 1.47637 21.7867 1.98837 20.464C2.50037 19.12 3.08704 17.7547 3.74837 16.368C4.43104 14.96 5.14571 13.6053 5.89237 12.304C6.63904 11.0027 7.39637 9.84 8.16437 8.816C8.95371 7.77067 9.70037 6.94933 10.4044 6.352C11.1297 5.73333 11.791 5.424 12.3884 5.424C12.4097 5.424 12.4417 5.424 12.4844 5.424C12.9537 5.424 13.3804 5.46667 13.7644 5.552C14.1697 5.616 14.5217 5.84 14.8204 6.224C15.1404 6.58667 15.4177 7.19467 15.6524 8.048C15.887 8.90133 16.0897 10.1067 16.2604 11.664C16.303 12.048 16.335 12.5067 16.3564 13.04C16.3777 13.552 16.3884 14.0853 16.3884 14.64C17.0924 13.0613 17.8604 11.5787 18.6924 10.192C19.5457 8.80533 20.4204 7.57867 21.3164 6.512C22.2337 5.44533 23.1404 4.61333 24.0364 4.016C24.9324 3.41867 25.7644 3.12 26.5324 3.12C27.4284 3.12 28.2604 3.344 29.0284 3.792C29.7964 4.21867 30.415 4.944 30.8844 5.968C31.3537 6.992 31.5884 8.38933 31.5884 10.16C31.5884 12.0373 31.4177 13.8613 31.0764 15.632C30.735 17.3813 30.3084 19.0347 29.7964 20.592C29.2844 22.1493 28.7724 23.5787 28.2604 24.88C27.7484 26.16 27.3217 27.2693 26.9804 28.208C26.703 28.8693 26.383 29.4133 26.0204 29.84C25.6577 30.2453 25.135 30.448 24.4524 30.448ZM37.1189 31.216C36.4362 31.216 35.8175 31.024 35.2629 30.64C34.7082 30.2773 34.2709 29.7973 33.9509 29.2C33.6309 28.5813 33.4709 27.92 33.4709 27.216C33.4709 25.8933 33.7589 24.6027 34.3349 23.344C34.9322 22.0853 35.7109 20.8907 36.6709 19.76C37.6309 18.6293 38.6762 17.5947 39.8069 16.656C40.9589 15.696 42.1002 14.8747 43.2309 14.192C44.3829 13.5093 45.4282 12.976 46.3669 12.592C47.3269 12.208 48.0735 12.016 48.6069 12.016C49.2255 12.016 49.7269 12.1547 50.1109 12.432C50.5162 12.688 50.7189 13.0933 50.7189 13.648C50.7189 13.8187 50.6762 13.9573 50.5909 14.064C50.8682 14.128 51.0922 14.288 51.2629 14.544C51.4335 14.8 51.5189 15.184 51.5189 15.696C51.5189 15.9093 51.4655 16.464 51.3589 17.36C51.2522 18.256 51.1349 19.344 51.0069 20.624C50.9002 21.904 50.8469 23.2373 50.8469 24.624C50.8469 24.8373 50.8789 25.0293 50.9429 25.2C51.0069 25.3493 51.1455 25.424 51.3589 25.424C52.2122 25.424 53.0762 25.2533 53.9509 24.912C54.8469 24.5493 55.7109 24.112 56.5429 23.6C57.3962 23.0667 58.1642 22.544 58.8469 22.032C59.5509 21.4987 60.1375 21.0613 60.6069 20.72C61.0975 20.3573 61.4175 20.176 61.5669 20.176C62.2922 20.176 62.6549 20.5387 62.6549 21.264C62.6549 21.456 62.4202 21.8613 61.9509 22.48C61.5029 23.0773 60.8842 23.7707 60.0949 24.56C59.3055 25.328 58.4202 26.096 57.4389 26.864C56.4789 27.6107 55.4762 28.2293 54.4309 28.72C53.4069 29.2107 52.4149 29.456 51.4549 29.456C50.2815 29.456 49.3855 29.1787 48.7669 28.624C48.1695 28.0693 47.7429 27.3227 47.4869 26.384C47.2522 25.424 47.1242 24.3467 47.1029 23.152C46.0149 24.7093 44.8842 26.096 43.7109 27.312C42.5589 28.5067 41.4175 29.456 40.2869 30.16C39.1562 30.864 38.1002 31.216 37.1189 31.216ZM48.4469 15.184C46.3562 16.1867 44.4789 17.3387 42.8149 18.64C41.1509 19.92 39.8282 21.264 38.8469 22.672C37.8869 24.08 37.4069 25.4347 37.4069 26.736C37.4069 27.0987 37.5775 27.28 37.9189 27.28C38.3242 27.28 38.8575 27.0453 39.5189 26.576C40.2015 26.1067 40.9375 25.488 41.7269 24.72C42.5162 23.9307 43.3055 23.056 44.0949 22.096C44.8842 21.1147 45.6202 20.112 46.3029 19.088C46.9855 18.064 47.5295 17.0827 47.9349 16.144C48.0842 15.8027 48.2549 15.4827 48.4469 15.184ZM60.9041 31.408C60.3708 31.408 59.9121 31.216 59.5281 30.832C59.1655 30.448 58.9841 29.8933 58.9841 29.168C58.9841 28.848 59.0268 28.3253 59.1121 27.6C59.2188 26.8533 59.3468 26 59.4961 25.04C59.6668 24.08 59.8268 23.0773 59.9761 22.032C60.1468 20.9867 60.2855 19.9947 60.3921 19.056C60.5201 18.1173 60.6055 17.3173 60.6481 16.656C60.6908 15.8453 60.9041 15.2693 61.2881 14.928C61.6721 14.5653 62.1308 14.384 62.6641 14.384C63.0908 14.384 63.4748 14.4907 63.8161 14.704C64.1788 14.896 64.4028 15.312 64.4881 15.952C64.5948 16.5707 64.6055 17.4667 64.5201 18.64C65.4588 16.9333 66.4081 15.408 67.3681 14.064C68.3495 12.72 69.3735 11.6533 70.4401 10.864C72.2108 9.52 73.8108 8.848 75.2401 8.848C76.0508 8.848 76.5841 9.02933 76.8401 9.392C77.0961 9.75467 77.2241 10.128 77.2241 10.512C77.2241 10.768 77.1601 11.0027 77.0321 11.216C76.9255 11.4293 76.6908 11.6533 76.3281 11.888C75.9655 12.1227 75.4108 12.432 74.6641 12.816C73.6615 13.328 72.6695 14 71.6881 14.832C70.7281 15.664 69.7681 16.7307 68.8081 18.032C67.8481 19.3333 66.8775 20.9333 65.8961 22.832C64.9148 24.7307 63.9015 26.992 62.8561 29.616C62.6641 30.3413 62.3868 30.8213 62.0241 31.056C61.6828 31.2907 61.3095 31.408 60.9041 31.408ZM79.8206 31.056C78.306 31.056 77.09 30.5227 76.1726 29.456C75.2553 28.368 74.7966 26.9173 74.7966 25.104C74.7966 24.528 74.8713 23.9413 75.0206 23.344C75.1913 22.7467 75.394 22.192 75.6286 21.68C75.5006 21.488 75.394 21.2427 75.3086 20.944C75.2446 20.624 75.2126 20.2507 75.2126 19.824C75.2126 18.4373 75.458 17.168 75.9486 16.016C76.4393 14.8427 77.1006 13.8293 77.9326 12.976C78.7646 12.1227 79.682 11.4613 80.6846 10.992C81.6873 10.5227 82.7006 10.288 83.7246 10.288C85.474 10.288 86.9033 10.8747 88.0126 12.048C89.1433 13.2213 89.7086 15.0453 89.7086 17.52C89.7086 18.7573 89.5166 20.016 89.1326 21.296C88.7486 22.576 88.226 23.8027 87.5646 24.976C86.9246 26.128 86.178 27.1627 85.3246 28.08C84.4926 28.9973 83.5966 29.7227 82.6366 30.256C81.698 30.7893 80.7593 31.056 79.8206 31.056ZM79.3086 20.24C79.4153 20.4747 79.4686 20.752 79.4686 21.072C79.4686 21.392 79.4046 21.7227 79.2766 22.064C79.1486 22.4053 79.0206 22.864 78.8926 23.44C78.7646 23.9947 78.7006 24.7947 78.7006 25.84C78.7006 26.1173 78.7326 26.352 78.7966 26.544C78.882 26.7147 79.0633 26.8 79.3406 26.8C80.066 26.8 80.7486 26.5653 81.3886 26.096C82.05 25.6267 82.6366 25.008 83.1486 24.24C83.682 23.472 84.13 22.6187 84.4926 21.68C84.8766 20.72 85.1646 19.7493 85.3566 18.768C85.57 17.7653 85.6766 16.8373 85.6766 15.984C85.6766 15.4293 85.57 15.0453 85.3566 14.832C85.1433 14.6187 84.77 14.512 84.2366 14.512C83.5113 14.512 82.7646 14.7467 81.9966 15.216C81.25 15.664 80.6206 16.2827 80.1086 17.072C79.5966 17.84 79.3406 18.7147 79.3406 19.696C79.3406 19.888 79.33 20.0693 79.3086 20.24ZM98.5016 30.896C97.307 30.896 96.2723 30.6187 95.3976 30.064C94.523 29.5307 93.851 28.8373 93.3816 27.984C92.9123 27.1093 92.6776 26.2133 92.6776 25.296C92.6776 23.76 92.9123 22.3413 93.3816 21.04C93.851 19.7173 94.4696 18.5227 95.2376 17.456C96.0056 16.368 96.8376 15.408 97.7336 14.576C98.651 13.744 99.5363 13.0507 100.39 12.496C101.264 11.92 102.043 11.4933 102.726 11.216C103.408 10.9173 103.91 10.768 104.23 10.768C104.806 10.768 105.211 10.896 105.446 11.152C105.702 11.3867 105.83 11.7813 105.83 12.336C105.83 12.656 105.595 13.04 105.126 13.488C104.678 13.936 104.08 14.448 103.334 15.024C102.608 15.6 101.84 16.2507 101.03 16.976C100.219 17.7013 99.4403 18.512 98.6936 19.408C97.9683 20.304 97.371 21.2853 96.9016 22.352C96.4536 23.4187 96.2296 24.5813 96.2296 25.84C96.2296 26.3093 96.315 26.672 96.4856 26.928C96.6776 27.184 96.987 27.312 97.4136 27.312C98.6296 27.312 99.931 27.0987 101.318 26.672C102.726 26.224 104.123 25.6693 105.51 25.008C106.918 24.3253 108.24 23.6213 109.478 22.896C110.736 22.1707 111.814 21.52 112.71 20.944C113.072 20.688 113.382 20.4853 113.638 20.336C113.894 20.1867 114.075 20.112 114.182 20.112C114.822 20.112 115.142 20.4427 115.142 21.104C115.142 21.4453 114.886 21.904 114.374 22.48C113.776 23.2267 112.966 23.9947 111.942 24.784C110.939 25.5733 109.819 26.3307 108.582 27.056C107.366 27.7813 106.118 28.432 104.838 29.008C103.579 29.584 102.395 30.0427 101.286 30.384C100.176 30.7253 99.2483 30.896 98.5016 30.896ZM113.973 32.496C112.992 32.496 112.288 32.2187 111.861 31.664C111.434 31.1093 111.221 30.2987 111.221 29.232C111.221 28.2507 111.402 26.9707 111.765 25.392C112.149 23.792 112.65 22.0107 113.269 20.048C113.909 18.064 114.624 16.0267 115.413 13.936C116.202 11.824 117.024 9.75467 117.877 7.728C118.73 5.68 119.562 3.80267 120.373 2.096C120.757 1.34933 121.162 0.837332 121.589 0.559999C122.016 0.282666 122.485 0.143999 122.997 0.143999C123.488 0.143999 123.904 0.282666 124.245 0.559999C124.586 0.815999 124.757 1.232 124.757 1.808C124.757 1.936 124.586 2.42666 124.245 3.28C123.904 4.112 123.456 5.2 122.901 6.544C122.346 7.86667 121.738 9.36 121.077 11.024C120.416 12.6667 119.754 14.384 119.093 16.176C118.432 17.9467 117.834 19.696 117.301 21.424C116.768 23.152 116.341 24.752 116.021 26.224C116.768 25.2213 117.568 24.112 118.421 22.896C119.296 21.6587 120.181 20.432 121.077 19.216C121.994 17.9787 122.89 16.848 123.765 15.824C124.661 14.8 125.493 13.9787 126.261 13.36C127.029 12.7413 127.701 12.432 128.277 12.432C129.344 12.432 130.197 12.7307 130.837 13.328C131.498 13.904 131.829 14.9067 131.829 16.336C131.829 16.9973 131.701 17.7973 131.445 18.736C131.189 19.6533 130.88 20.624 130.517 21.648C130.176 22.6507 129.877 23.6213 129.621 24.56C129.365 25.4987 129.237 26.32 129.237 27.024C129.237 27.408 129.418 27.6 129.781 27.6C130.826 27.6 131.882 27.376 132.949 26.928C134.037 26.48 135.072 25.9253 136.053 25.264C137.056 24.5813 137.962 23.9093 138.773 23.248C139.605 22.5653 140.277 22 140.789 21.552C141.152 21.2107 141.482 20.9867 141.781 20.88C142.08 20.752 142.357 20.688 142.613 20.688C143.488 20.688 143.925 21.1253 143.925 22C143.925 22.1707 143.893 22.384 143.829 22.64C143.765 22.8747 143.562 23.1733 143.221 23.536C142.88 23.8987 142.368 24.4107 141.685 25.072C141.002 25.7333 140.202 26.4373 139.285 27.184C138.389 27.9307 137.408 28.6453 136.341 29.328C135.296 29.9893 134.218 30.5333 133.109 30.96C132 31.3867 130.922 31.6 129.877 31.6C128.298 31.6 127.082 31.152 126.229 30.256C125.376 29.3813 124.949 28.1867 124.949 26.672C124.949 25.6267 125.162 24.3147 125.589 22.736C126.016 21.136 126.496 19.504 127.029 17.84C126.282 18.5653 125.504 19.4293 124.693 20.432C123.882 21.4133 123.061 22.4587 122.229 23.568C121.397 24.656 120.576 25.7333 119.765 26.8C118.976 27.8453 118.218 28.8053 117.493 29.68C116.768 30.5333 116.106 31.216 115.509 31.728C114.912 32.24 114.4 32.496 113.973 32.496ZM157.647 32.336C156.196 32.336 154.852 32.0267 153.615 31.408C152.378 30.8107 151.247 30.0213 150.223 29.04C149.199 28.0373 148.282 26.9493 147.471 25.776C146.682 24.5813 146.01 23.408 145.455 22.256C145.199 23.4293 144.964 24.432 144.751 25.264C144.559 26.096 144.399 26.7893 144.271 27.344C144.164 27.7707 144.047 28.1867 143.919 28.592C143.812 28.9973 143.642 29.328 143.407 29.584C143.172 29.84 142.842 29.968 142.415 29.968C141.498 29.968 140.911 29.6587 140.655 29.04C140.399 28.4 140.271 27.5893 140.271 26.608C140.271 25.7333 140.41 24.5813 140.687 23.152C140.986 21.7227 141.38 20.1227 141.871 18.352C142.362 16.5813 142.927 14.7573 143.567 12.88C144.228 10.9813 144.932 9.136 145.679 7.344C146.426 5.53067 147.172 3.888 147.919 2.416C148.388 1.52 148.804 0.954666 149.167 0.719999C149.53 0.463999 149.956 0.335999 150.447 0.335999C150.938 0.335999 151.311 0.463999 151.567 0.719999C151.823 0.975999 151.951 1.31733 151.951 1.744C151.951 2.02133 151.887 2.29866 151.759 2.576C151.631 2.85333 151.492 3.19467 151.343 3.6C150.852 4.688 150.34 5.95733 149.807 7.408C149.274 8.83733 148.762 10.32 148.271 11.856C147.78 13.3707 147.343 14.8107 146.959 16.176C148.004 15.5573 149.167 14.96 150.447 14.384C151.727 13.7867 153.018 13.2533 154.319 12.784C155.642 12.2933 156.879 11.9093 158.031 11.632C159.183 11.3547 160.154 11.216 160.943 11.216C161.562 11.216 162.031 11.3973 162.351 11.76C162.671 12.1227 162.831 12.5173 162.831 12.944C162.831 13.264 162.735 13.584 162.543 13.904C162.351 14.224 161.946 14.5013 161.327 14.736C159.279 15.4187 157.242 16.112 155.215 16.816C153.21 17.52 150.98 18.352 148.527 19.312C149.039 20.3147 149.636 21.3493 150.319 22.416C151.002 23.4613 151.738 24.4427 152.527 25.36C153.316 26.256 154.127 26.992 154.959 27.568C155.791 28.1227 156.612 28.4 157.423 28.4C158.618 28.4 159.77 28.1653 160.879 27.696C161.988 27.2053 163.012 26.6187 163.951 25.936C164.89 25.232 165.711 24.5493 166.415 23.888C167.14 23.2267 167.706 22.7147 168.111 22.352C168.346 22.1173 168.57 21.9467 168.783 21.84C169.018 21.7333 169.306 21.68 169.647 21.68C170.052 21.68 170.362 21.808 170.575 22.064C170.81 22.2987 170.916 22.608 170.895 22.992C170.874 23.3547 170.692 23.7173 170.351 24.08C170.074 24.3787 169.636 24.8587 169.039 25.52C168.463 26.16 167.759 26.8747 166.927 27.664C166.116 28.432 165.21 29.1787 164.207 29.904C163.226 30.608 162.18 31.184 161.071 31.632C159.962 32.1013 158.82 32.336 157.647 32.336ZM169.591 30.48C168.994 30.48 168.46 30.2773 167.991 29.872C167.543 29.4667 167.319 28.8053 167.319 27.888C167.319 27.3973 167.383 26.704 167.511 25.808C167.66 24.912 167.852 23.9413 168.087 22.896C168.322 21.8293 168.578 20.7733 168.855 19.728C169.154 18.6827 169.442 17.7547 169.719 16.944C169.996 16.112 170.242 15.4933 170.455 15.088C170.732 14.5973 170.988 14.2987 171.223 14.192C171.479 14.064 171.724 14 171.959 14C172.386 14 172.78 14.128 173.143 14.384C173.527 14.64 173.719 15.2053 173.719 16.08C173.719 16.4213 173.655 16.976 173.527 17.744C173.399 18.4907 173.239 19.3653 173.047 20.368C172.855 21.3707 172.642 22.4053 172.407 23.472C172.194 24.5387 171.98 25.552 171.767 26.512C171.575 27.4507 171.415 28.24 171.287 28.88C171.18 29.4133 170.956 29.808 170.615 30.064C170.295 30.3413 169.954 30.48 169.591 30.48ZM173.271 10.832C172.567 10.832 171.916 10.6293 171.319 10.224C170.722 9.79733 170.423 9.14667 170.423 8.272C170.423 7.54667 170.604 6.96 170.967 6.512C171.33 6.064 171.756 5.744 172.247 5.552C172.759 5.33867 173.207 5.232 173.591 5.232C173.975 5.232 174.402 5.31733 174.871 5.488C175.34 5.63733 175.746 5.92533 176.087 6.352C176.45 6.75733 176.631 7.344 176.631 8.112C176.631 8.624 176.45 9.09333 176.087 9.52C175.724 9.92533 175.276 10.2453 174.743 10.48C174.231 10.7147 173.74 10.832 173.271 10.832ZM180.579 30C180.067 30 179.555 29.8293 179.043 29.488C178.552 29.1253 178.147 28.6133 177.827 27.952C177.507 27.2693 177.347 26.448 177.347 25.488C177.347 24.208 177.517 22.8427 177.859 21.392C178.221 19.9413 178.659 18.4907 179.171 17.04C179.683 15.5893 180.184 14.224 180.675 12.944C180.909 12.3253 181.197 11.9093 181.539 11.696C181.88 11.4613 182.328 11.344 182.883 11.344C184.141 11.344 184.771 11.9733 184.771 13.232C184.771 13.4453 184.675 13.8613 184.483 14.48C184.291 15.0773 184.035 15.8133 183.715 16.688C183.416 17.5627 183.096 18.512 182.755 19.536C182.435 20.5387 182.136 21.5627 181.859 22.608C181.603 23.632 181.4 24.6027 181.251 25.52C181.741 24.7733 182.285 23.8453 182.883 22.736C183.501 21.6053 184.152 20.4213 184.835 19.184C185.539 17.9467 186.243 16.7947 186.947 15.728C187.651 14.64 188.344 13.7547 189.027 13.072C189.709 12.3893 190.36 12.048 190.979 12.048C191.512 12.048 192.013 12.1547 192.483 12.368C192.973 12.56 193.4 12.944 193.763 13.52C194.125 14.0747 194.403 14.8747 194.595 15.92C194.808 16.9653 194.915 18.3413 194.915 20.048C194.915 20.9013 194.989 21.7333 195.139 22.544C195.309 23.3333 195.587 23.9947 195.971 24.528C196.355 25.04 196.899 25.296 197.603 25.296C198.819 25.296 199.907 25.072 200.867 24.624C201.827 24.176 202.669 23.6533 203.395 23.056C204.12 22.4587 204.728 21.936 205.219 21.488C205.517 21.1893 205.773 20.9547 205.987 20.784C206.221 20.6133 206.413 20.528 206.563 20.528C207.011 20.528 207.331 20.6453 207.523 20.88C207.736 21.1147 207.843 21.4347 207.843 21.84C207.843 22.0533 207.661 22.448 207.299 23.024C206.936 23.6 206.424 24.2613 205.763 25.008C205.123 25.7333 204.387 26.4373 203.555 27.12C202.723 27.8027 201.827 28.368 200.867 28.816C199.907 29.264 198.925 29.488 197.923 29.488C196.237 29.488 194.84 29.1893 193.731 28.592C192.643 27.9733 191.832 26.9493 191.299 25.52C190.765 24.0693 190.499 22.096 190.499 19.6C190.499 19.536 190.499 19.4293 190.499 19.28C190.499 18.6187 190.488 18.032 190.467 17.52C190.467 17.008 190.435 16.592 190.371 16.272C190.008 16.9333 189.571 17.7227 189.059 18.64C188.568 19.5573 188.035 20.5387 187.459 21.584C186.883 22.608 186.285 23.6213 185.667 24.624C185.048 25.6053 184.429 26.5013 183.811 27.312C183.213 28.1227 182.637 28.7733 182.083 29.264C181.528 29.7547 181.027 30 180.579 30Z" fill="white"/>
</svg>
