<svg width="56" height="56" viewBox="0 0 56 56" fill="none" xmlns="http://www.w3.org/2000/svg">
<rect x="1" y="1" width="54" height="54" rx="2" stroke="black" stroke-width="2"/>
<path d="M28.2176 16C21.711 16 16.4357 21.234 16.4357 27.691C16.4357 29.8997 17.0535 31.9655 18.1264 33.7278L16 40L22.5231 37.9277C24.211 38.8537 26.1523 39.382 28.2176 39.382C34.7251 39.382 40 34.1473 40 27.691C40 21.234 34.7251 16 28.2176 16ZM34.0763 32.1309C33.7991 32.8181 32.5455 33.4452 31.9924 33.474C31.4399 33.5033 31.4241 33.9023 28.4117 32.5936C25.3996 31.2847 23.5875 28.102 23.4446 27.897C23.3016 27.6928 22.2778 26.2338 22.3331 24.7655C22.3887 23.297 23.1927 22.6041 23.4797 22.316C23.7664 22.0274 24.095 21.9757 24.2957 21.9724C24.5329 21.9686 24.6866 21.9653 24.8621 21.9718C25.0375 21.9785 25.301 21.9351 25.5291 22.5418C25.7571 23.1484 26.3028 24.6393 26.3726 24.7912C26.4424 24.9433 26.4855 25.1194 26.3781 25.3146C26.2703 25.5103 26.2151 25.6326 26.0587 25.8012C25.9015 25.9699 25.728 26.1785 25.5877 26.3074C25.4313 26.4502 25.2679 26.6059 25.4324 26.9111C25.5967 27.2161 26.1638 28.2159 27.0277 29.0398C28.1379 30.099 29.0954 30.4503 29.3901 30.6104C29.6855 30.7713 29.8618 30.7534 30.045 30.5606C30.2274 30.3678 30.8293 29.7171 31.0412 29.4266C31.2531 29.1352 31.4517 29.1923 31.7239 29.3018C31.9959 29.4117 33.4466 30.1887 33.7421 30.3492C34.0372 30.5093 34.2345 30.5918 34.3051 30.7188C34.3756 30.8463 34.3534 31.4437 34.0763 32.1309Z" fill="black"/>
</svg>
